<svg xmlns="http://www.w3.org/2000/svg" width="66" height="38">
            <g>
              <g
                fill="#132f5e"
                transform="matrix(0.0040874,0,0,0.0040874,-1.6787956,-0.22074102)"
                id="l2qbdMdarpVr755vOJ0uKsn"
              >
                <g id="g1843">
                  <path
                    d="m13215,5929c-165,-14 -386,-39 -455,-50c-378,-63 -667,-138 -724,-189c-29,-27 -31,-32 -30,-102c0,-73 66,-468 86,-521c12,-31 54,-57 93,-57c14,0 106,20 203,44c428,108 699,150 962,150c260,0 426,-41 539,-132c97,-79 141,-184 141,-339c0,-177 -67,-287 -225,-366c-70,-36 -92,-43 -240,-76c-77,-17 -105,-22 -310,-56c-490,-81 -773,-195 -979,-394c-187,-182 -279,-391 -307,-704c-19,-209 6,-451 65,-644c83,-267 276,-487 536,-611c160,-76 308,-115 585,-153c118,-17 588,-17 720,0c55,7 154,19 220,27c131,17 170,23 320,55c55,12 118,25 140,30c150,30 279,76 312,111c25,26 28,36 28,96c-1,37 -9,108 -18,157c-10,50 -22,115 -27,145c-39,220 -49,245 -103,255c-37,7 -50,5 -332,-57c-399,-89 -608,-114 -870,-104c-315,12 -469,83 -548,254c-29,63 -31,75 -31,182c0,109 1,118 32,181c37,77 87,126 170,168c115,58 219,84 537,136c250,40 381,66 505,102c477,136 712,377 810,828c26,121 38,433 22,565c-30,241 -106,434 -236,596c-59,74 -79,94 -157,159c-78,65 -235,153 -354,198c-272,103 -697,148 -1080,116z"
                    id="p1C3jmcMrq"
                  />
                  <path
                    d="m6732,5847c-22,-23 -22,-23 -22,-2004c0,-1872 1,-1982 18,-2002c18,-22 66,-34 206,-51c45,-5 171,-21 281,-35c447,-58 427,-57 455,-37c13,10 28,32 32,50c5,17 7,937 6,2045c-3,1965 -3,2015 -22,2036c-19,21 -24,21 -476,21c-457,0 -457,0 -478,-23z"
                    id="pTH2UXf92"
                  />
                  <path
                    d="m8766,5839c-26,-31 -26,-31 -26,-2013c0,-1816 1,-1983 16,-2005c38,-53 -14,-51 1339,-51c1345,0 1308,-1 1334,48c7,14 11,129 11,335c0,303 -1,315 -21,341c-20,26 -20,26 -850,26c-829,0 -829,0 -829,560c0,560 0,560 733,560c732,0 732,0 762,24c30,24 30,24 33,345c3,322 3,322 -27,351c-29,30 -29,30 -765,30c-736,0 -736,0 -736,705c0,748 0,751 -45,769c-9,3 -216,6 -460,6c-443,0 -443,0 -469,-31z"
                    id="p8svlX3SF"
                  />
                  <path
                    d="m1383,2576c-56,-18 -108,-52 -132,-84c-10,-15 -63,-103 -118,-197c-55,-93 -166,-283 -247,-422c-165,-281 -185,-333 -166,-415c13,-50 27,-78 232,-428c66,-113 137,-234 158,-270c146,-253 163,-274 245,-311c37,-17 79,-19 577,-19c520,0 538,1 585,21c26,11 61,32 76,47c26,24 105,150 182,287c15,28 80,140 145,250c244,417 252,436 227,531c-11,44 -97,200 -252,459c-23,39 -91,155 -151,258c-112,194 -157,251 -222,283c-34,18 -73,19 -567,21c-416,2 -539,-1 -572,-11z"
                    id="pHllszHhV"
                  />
                </g>
              </g>
              <g
                fill="#3baf9f"
                transform="matrix(0.0040874,0,0,0.0040874,-1.6787956,-0.22074102)"
                id="l5c5XR4oQ4Tn3E8QdycTOki"
              >
                <g id="g1854">
                  <path
                    d="m8067,8429c-154,-37 -217,-94 -268,-241c-21,-58 -23,-81 -22,-273c0,-189 2,-216 22,-270c46,-129 122,-200 252,-237c57,-16 92,-18 201,-15c193,5 280,35 354,119c72,82 99,190 99,398c0,233 -29,342 -115,427c-52,52 -104,77 -202,97c-102,21 -225,19 -321,-5zm308,-172c30,-16 48,-37 70,-82c30,-59 30,-59 30,-250c0,-174 -2,-195 -23,-250c-19,-50 -30,-65 -69,-90c-43,-27 -53,-29 -142,-29c-104,0 -139,11 -185,61c-36,39 -48,98 -53,263c-8,235 20,335 104,379c57,30 213,29 268,-2z"
                    id="pwejmb5oD"
                  />
                  <path
                    d="m9180,8430c-41,-10 -89,-25 -107,-34c-51,-27 -119,-99 -142,-151c-63,-142 -65,-505 -3,-645c41,-94 116,-155 238,-194c71,-22 299,-23 369,0c157,50 233,132 266,284c14,68 8,477 -8,505c-6,11 -21,40 -33,65c-29,59 -74,106 -131,135c-107,54 -306,69 -449,35zm323,-183c20,-15 42,-37 48,-49c26,-49 38,-138 39,-283c0,-209 -19,-272 -96,-332c-35,-26 -42,-27 -145,-27c-106,0 -110,1 -146,30c-21,17 -49,52 -63,80c-24,47 -25,56 -25,239c0,200 8,250 50,309c36,51 86,67 201,64c93,-3 104,-5 137,-31z"
                    id="podErQwFm"
                  />
                  <path
                    d="m10315,8432c-138,-29 -221,-96 -266,-215c-23,-59 -24,-74 -24,-297c0,-221 1,-238 23,-294c47,-122 109,-182 225,-217c77,-23 281,-26 372,-4c62,15 82,8 69,-25c-9,-21 -18,-304 -10,-333c8,-32 55,-53 138,-61c60,-6 68,-4 78,13c7,13 10,233 10,661c0,680 1,671 -46,711c-77,65 -390,98 -569,61zm368,-171c15,-12 17,-49 17,-342c0,-269 -3,-330 -14,-342c-18,-17 -176,-30 -266,-20c-57,6 -68,10 -104,47c-62,62 -80,146 -73,341c6,194 31,267 105,313c34,21 47,22 178,20c102,-2 146,-7 157,-17z"
                    id="pwzwYCLo8"
                  />
                  <path
                    d="m6721,8406c-8,-10 -11,-195 -9,-696c3,-632 4,-683 20,-694c14,-10 114,-12 449,-10c237,2 433,5 436,8c3,2 5,41 6,86c0,61 -3,84 -14,91c-8,5 -159,9 -337,9c-322,0 -322,0 -320,238c3,237 3,237 301,242c250,4 299,7 307,20c16,25 12,133 -6,158c-15,22 -17,22 -303,22c-254,0 -290,2 -295,16c-3,9 -6,125 -6,258c0,175 -3,245 -12,254c-18,18 -202,16 -217,-2z"
                    id="pUKAel7lh"
                  />
                  <path
                    d="m3519,6401c-74,-15 -145,-71 -185,-146c-19,-37 -266,-459 -306,-522c-21,-34 -38,-64 -38,-67c0,-2 -27,-49 -60,-105c-33,-55 -67,-117 -76,-138c-22,-53 -21,-149 3,-198c21,-45 30,-60 194,-340c64,-110 127,-218 139,-240c151,-270 203,-340 277,-375c41,-19 61,-20 587,-20c513,0 547,1 589,19c79,34 79,33 292,401c82,140 183,314 225,385c111,190 113,194 109,284c-4,75 -6,81 -73,197c-38,65 -80,139 -94,164c-14,25 -33,56 -42,70c-9,14 -30,48 -45,75c-48,88 -207,358 -248,423c-45,71 -103,116 -168,131c-50,12 -1022,13 -1080,2z"
                    id="pMx5IoFM9"
                  />
                  <path
                    d="m8745,3825c0,-1094 1,-1544 2,-998c2,545 2,1441 0,1990c-1,549 -2,103 -2,-992z"
                    id="pBJHrVlu7"
                  />
                  <path
                    d="m7705,3790c0,-1108 1,-1562 2,-1008c2,555 2,1461 0,2015c-1,555 -2,101 -2,-1007z"
                    id="pSwopvNr8"
                  />
                  <path
                    d="m3500,3913c-100,-34 -145,-90 -315,-398c-16,-27 -56,-97 -90,-155c-34,-58 -72,-123 -85,-145c-157,-268 -164,-283 -174,-345c-11,-75 19,-140 229,-492c6,-9 17,-29 26,-45c28,-51 171,-296 211,-360c21,-34 38,-65 38,-69c0,-19 66,-84 112,-110c53,-29 53,-29 598,-29c585,0 576,-1 648,52c32,24 72,80 126,178c31,54 137,237 221,380c233,395 230,389 223,499c-3,51 -11,75 -45,132c-22,38 -50,85 -61,104c-11,19 -50,87 -87,150c-38,63 -75,129 -84,145c-9,17 -55,95 -102,175c-48,80 -94,160 -103,179c-27,52 -95,120 -142,142c-41,18 -69,19 -586,18c-299,0 -550,-3 -558,-6z"
                    id="p8qAgjLSt"
                  />
                </g>
              </g>
            </g>
          </svg>