 <svg xmlns="http://www.w3.org/2000/svg" width="94" height="66">
            <g>
              <g fill="#174e7e" id="g3864">
                <path
                  d="m0,33l0,-33l47,0l47,0l0,33l0,33l-47,0l-47,0l0,-33z"
                  id="path3862"
                />
              </g>
              <g fill="#ffffff" id="g3880">
                <path
                  d="m16.53596,59.53575c0.22097,-1.13493 0.59535,-3.42581 0.7124,-3.85512c0.68127,0.11646 1.57773,0.31937 3.05164,0.31937c3.1,0 5.3575,-1.47734 5.77734,-3.91815c-0.87132,0.21345 -2.3034,0.43397 -4.10711,0.34905c-1.9391,-0.16573 -3.57023,-1.1309 -4.37023,-2.0309c-3.7,-3.7 -0.3,-10.4 5.3,-10.4c4.7,0 7.3,2.9 7.8,8.6c0.5,4.3 -1.22526,6.99099 -2.2,8.2c-1.28353,1.61724 -3.40009,3.22579 -7.1,3.2c-3.16967,-0.0221 -3.90282,-0.17847 -4.86404,-0.46425zm8.7646,-11.75616c1.23202,-2.03089 -0.40056,-3.77959 -2.40056,-3.77959c-1.9,0 -3.17509,2.9 -1.67509,4.3c0.9,1 3.25468,1.04363 4.07565,-0.52041z"
                  id="path3866"
                />
                <path
                  d="m36,58c-2,-2 -2.3,-3.6 -2.1,-10c0.1,-6.5 7.2,-10.1 12.1,-6.2c3.4,2.8 4,11.7 1,15.5c-2.7,3.4 -8,3.7 -11,0.7zm7.4,-3.6c1.0768,-4.19374 0.40598,-10.46256 -2.18466,-10.14307c-3.24342,-0.20598 -3.21749,6.09874 -2.11196,10.0266c0.92322,2.41534 3.7333,2.31037 4.29662,0.11647z"
                  id="path3868"
                />
                <path
                  d="m72,53.5c0.0416,-3.79491 0.10191,-6.14486 -0.04016,-6.31612c-0.15205,-0.18328 -0.89602,0.30467 -1.95984,0.81612c-0.74391,0.39384 -1.32912,0.62743 -2.01966,0.92111c0.0075,-0.54682 -0.08056,-4.05355 -0.04283,-4.72736c1.78125,-0.96563 1.64062,-0.85 4.68125,-2.32812c1.70625,-0.76251 3.41059,-1.72059 4.375,-1.99063c0.04374,0.71875 0.00624,3.325 0.00624,10.125c0,10 -0.01563,7 -0.07813,10c-1.33372,0.0343 -4.24826,0.01083 -4.91891,-0.01272c-0.03235,-1.1784 -0.04269,-2.86211 -0.00296,-6.48728z"
                  id="path3872"
                />
                <path
                  d="m31.99194,34.49319c-0.78891,-0.19332 -1.73301,-0.35016 -2.80624,-0.78832c0.05159,-0.59342 0.47049,-1.92227 0.58718,-2.78455c0.16684,-1.23284 0.30833,-1.83578 0.38831,-2.62923c0.93554,0.19191 2.96979,1.04194 5.99773,1.04194c4.8,0 5.60625,-0.95625 5.60625,-2.45625c0,-1.3 -1.7,-2.5 -5.5,-4c-4,-1.6 -5.7,-2.9 -6.4,-4.8c-2,-5.9 1.7,-10.6 9.3,-11.6c2.76875,-0.44688 7.17812,0.27812 9.61562,0.76562c-0.13815,0.92117 -1.03171,3.95372 -1.5475,5.83952c-1.19844,-0.36679 -2.16837,-0.58424 -3.76812,-0.70514c-3.2,-0.3 -5.2,0.1 -6,1c-1.5,1.9 -0.4,3.1 4.7,4.8c9,3 10.7,11.4 3.1,15.2c-2.07727,1.0701 -5.16159,1.82158 -8.12499,1.81824c-1.74433,-0.002 -3.66614,-0.29426 -5.14824,-0.70183z"
                  id="path3874"
                />
                <path
                  d="m58.3,33.4c-5.8,-2.9 -8.2,-13.5 -4.7,-20.9c3.8,-8.1 17.8,-8.6 22.9,-0.9c2.6,3.9 2.7,13.9 0.2,17.8c-3.4,5.2 -12.1,7.1 -18.4,4zm10.9,-6.1c2.6,-2.3 2.5,-11.3 -0.1,-13.7c-2.7,-2.4 -7.2,-1.7 -8.9,1.4c-1.5,2.9 -1,10.3 0.8,12.5c1.7,2 5.9,1.9 8.2,-0.2z"
                  id="path3876"
                />
                <path
                  d="m19,20.5c0,-8.63878 0,-12.34327 0.00305,-13.47904c0.68796,0.00248 2.23663,-0.02096 3.49695,-0.02096c1.18946,0 2.8858,0.00837 3.49323,0.00658c-0.02057,1.49334 0.00677,4.58134 0.00677,13.49342c0,13.5 -0.05778,12.5926 -0.05778,14.91433c0,0 -2.87913,0.06644 -3.62926,0.05791c-0.91851,-0.01044 -2.88606,0.04493 -3.25264,0.04139c-0.02493,-1.77076 -0.06032,-14.09077 -0.06032,-15.01363z"
                  id="path3878"
                />
              </g>
              <path
                fill="#ffffff"
                d="m53.43018,58.14127c-2,-2 -2.3,-3.6 -2.1,-10c0.1,-6.5 7.2,-10.1 12.1,-6.2c3.4,2.8 4,11.7 1,15.5c-2.7,3.4 -8,3.7 -11,0.7zm7.4,-3.6c1.0768,-4.19374 0.40598,-10.46257 -2.18466,-10.14307c-3.24342,-0.20598 -3.21749,6.09874 -2.11196,10.0266c0.92322,2.41534 3.7333,2.31037 4.29662,0.11647z"
                id="path3868-3"
              />
            </g>
          </svg>