 <svg xmlns="http://www.w3.org/2000/svg" width="75.2" height="52.8">
            <g>
              <g display="inline" id="g1613">
                <path
                  fill="#fcfcfc"
                  id="path1051"
                  d="m0.66088,-0.22555l0,1.6c1.30813,-0.43604 1.16396,-0.29188 1.6,-1.6l-1.6,0z"
                />
                <path
                  fill="#adc1d1"
                  id="path1053"
                  d="m2.26088,-0.22555l0.8,0.79999l-0.8,-0.79999z"
                />
                <path
                  fill="#adc1d1"
                  id="path1057"
                  d="m73.46088,-0.22555l0.8,0.79999l-0.8,-0.79999z"
                />
                <path
                  fill="#fcfcfc"
                  id="path1059"
                  d="m74.26088,-0.22555c0.4361,1.30814 0.2918,1.16395 1.6,1.6l0,-1.6l-1.6,0z"
                />
                <path
                  fill="#668eac"
                  id="path1061"
                  d="m1.46088,0.57444l0.8,0.80001l-0.8,-0.80001m72.8,0l0.8,0.80001l-0.8,-0.80001z"
                />
                <path
                  fill="#adc1d1"
                  id="path1063"
                  d="m0.66088,1.37445l0.8,0.8l-0.8,-0.8m74.4,0l0.8,0.8l-0.8,-0.8z"
                />
                <rect
                  fill="#1a5282"
                  stroke-width="2.06414"
                  y="-0.22556"
                  x="-0.80413"
                  height="54.22647"
                  width="76.66501"
                  id="rect1645"
                />
                <path
                  fill="#fcfcfc"
                  id="path1071"
                  d="m12.20666,3.45745c-1.13739,0.02762 -1.32609,0.00377 -1.35353,1.67374c-0.03203,1.94945 0.80482,1.15546 2.53091,3.92746c-0.13162,1.39133 0.0944,7.21384 -0.58198,8.61729c-0.57509,1.72893 -2.80079,6.74491 -5.02309,12.2561c-0.77402,1.91954 -3.35932,7.80612 -4.42872,10.75511c-0.80969,2.23284 -1.17624,4.79035 -0.07983,6.17942c0.94972,1.12824 1.70211,1.68699 3.28187,1.8606c2.00579,0.37128 13.26327,0.37048 18.03949,0.34193c5.38054,-0.03217 8.21392,-0.10099 9.52716,-2.74428c1.24486,-2.91607 0.57903,-4.48394 -1.17839,-8.43176c-1.31218,-2.94766 -4.46562,-10.24611 -5.3187,-12.3617c-1.15405,-2.86199 -2.79539,-7.36937 -2.93172,-8.24874c-0.16981,-4.57966 -0.29291,-7.11308 -0.22454,-8.49008c1.47398,-2.3452 2.97614,-1.89431 2.97285,-4.3558c-0.001,-0.77673 0.08548,-1.14627 -1.33823,-1.13511l-13.89355,0.15582z"
                />
                <path
                  fill="#396a93"
                  id="path1077"
                  d="m13.46088,5.37445l0.8,0.8l-0.8,-0.8z"
                />
                <path
                  fill="#bdcfdb"
                  id="path1083"
                  d="m13.46088,6.17445l0.8,0.8l-0.8,-0.8z"
                />
                <path
                  fill="#4e7da3"
                  id="path1087"
                  d="m11.86088,6.97445l0.8,0.8l-0.8,-0.8z"
                />
                <path
                  fill="#8aa6bc"
                  id="path1089"
                  d="m14.26088,6.97445l0.8,0.8l-0.8,-0.8z"
                />
                <path
                  fill="#1a5282"
                  id="path1091"
                  d="m10.95743,26.57926l14.836,-0.40281c-0.45477,-1.25217 -2.78278,-7.85982 -2.75297,-8.67235c-0.22325,-4.40101 -0.18142,-4.58642 -0.22298,-8.95875c0.0588,-1.11276 2.65431,-2.47273 2.89361,-3.45266c0.15348,-0.62847 -1.77812,-0.42121 -7.40291,-0.36654c-4.10896,0.01959 -6.0056,-0.26358 -5.83932,0.5299c-0.01113,0.69211 2.75812,2.71566 2.50693,3.63732c0.04735,1.3661 0.01484,7.98098 -0.28677,8.67841c-0.98546,2.2484 -1.88013,4.74526 -3.73159,9.00748z"
                />
                <path
                  fill="#adc1d1"
                  id="path1097"
                  d="m12.66088,7.77444l0.8,0.80001l-0.8,-0.80001z"
                />
                <path
                  fill="#4e7da3"
                  id="path1311"
                  d="m11.86088,18.97444l0.8,0.8l-0.8,-0.8z"
                />
                <path
                  fill="#396a93"
                  id="path1313"
                  d="m14.26088,18.97444l0.8,0.8l-0.8,-0.8z"
                />
                <path
                  fill="#adc1d1"
                  id="path1317"
                  d="m11.86088,19.77444l0.8,0.80001l-0.8,-0.80001m11.2,0l0.8,0.80001l-0.8,-0.80001z"
                />
                <path
                  fill="#668eac"
                  id="path1321"
                  d="m13.46088,20.57445l0.8,0.8l-0.8,-0.8z"
                />
                <path
                  fill="#8aa6bc"
                  id="path1333"
                  d="m11.06088,21.37445l0.8,0.8l-0.8,-0.8z"
                />
                <path
                  fill="#8aa6bc"
                  id="path1365"
                  d="m12.66088,22.17445l0.8,0.8l-0.8,-0.8m11.2,0l0.8,0.8l-0.8,-0.8z"
                />
                <path
                  fill="#668eac"
                  id="path1375"
                  d="m10.26088,22.97444l0.8,0.8l-0.8,-0.8z"
                />
                <path
                  fill="#396a93"
                  id="path1377"
                  d="m12.66088,22.97444l0.8,0.8l-0.8,-0.8z"
                />
                <path
                  fill="#bdcfdb"
                  id="path1423"
                  d="m10.26088,23.77444l0.8,0.80001l-0.8,-0.80001z"
                />
                <path
                  fill="#668eac"
                  id="path1457"
                  d="m8.66088,26.97444l0.8,0.8l-0.8,-0.8z"
                />
                <path
                  fill="#90e7ff"
                  id="path1459"
                  d="m10.50485,27.9565l-1.11815,2.51784c1.0753,0.027 2.30154,0.05534 3.29781,0.05812c0.37676,0.001 -0.2298,0.51317 -0.40493,1.08773l-3.16452,-0.17387l-1.26446,2.96684l3.08508,0.07572l-0.6748,1.28557l-3.0625,-0.09755l-1.29059,2.82976l3.2331,0.01512l-0.48001,1.25267l-3.12447,-0.05169l-0.543,1.38149l3.1894,0.08354l-0.49896,1.26747l-3.17879,-0.11405c0,0 -0.48772,1.34144 -0.08294,2.66848c1.40376,2.44793 2.30593,2.01157 3.89613,2.0446c4.47407,0.09293 11.50924,0.14518 14.83645,0.13832c7.08854,-0.16012 8.06454,0.01497 9.47865,-2.3841c0.83282,-1.98218 -0.28431,-3.14809 -2.36387,-8.23405c-1.0207,-2.48382 -2.94191,-6.83056 -3.82461,-8.48878c-2.40202,-0.001 -10.05553,-0.24462 -15.94002,-0.12917l0,-0.00001z"
                />
                <path
                  fill="#396a93"
                  id="path1475"
                  d="m7.86088,28.57445l0.8,0.8l-0.8,-0.8z"
                />
                <path
                  fill="#adc1d1"
                  id="path1487"
                  d="m7.86088,29.37445l0.8,0.79999l-0.8,-0.79999z"
                />
                <path
                  fill="#668eac"
                  id="path1509"
                  d="m7.06088,30.97445l0.8,0.79999l-0.8,-0.79999z"
                />
                <path
                  fill="#4e7da3"
                  id="path1527"
                  d="m6.26088,32.57444l0.8,0.8l-0.8,-0.8z"
                />
                <path
                  fill="#adc1d1"
                  id="path1531"
                  d="m6.26088,33.37445l0.8,0.79999l-0.8,-0.79999z"
                />
                <path
                  fill="#8aa6bc"
                  id="path1535"
                  d="m5.46088,34.97445l0.8,0.79999l-0.8,-0.79999z"
                />
                <path
                  fill="#4e7da3"
                  id="path1539"
                  d="m4.66088,36.57444l0.8,0.8l-0.8,-0.8z"
                />
                <path
                  fill="#bdcfdb"
                  id="path1543"
                  d="m4.66088,37.37445l0.8,0.79999l-0.8,-0.79999z"
                />
                <path
                  fill="#396a93"
                  id="path1547"
                  d="m3.86088,38.17444l0.8,0.8l-0.8,-0.8z"
                />
                <path
                  fill="#668eac"
                  id="path1561"
                  d="m3.06088,40.57444l0.8,0.8l-0.8,-0.8z"
                />
                <path
                  fill="#8aa6bc"
                  id="path1565"
                  d="m33.46088,40.57444l0.8,0.8l-0.8,-0.8z"
                />
                <path
                  fill="#d1dbe2"
                  id="path1567"
                  d="m3.06088,41.37445l0.8,0.79999l-0.8,-0.79999z"
                />
                <path
                  fill="#396a93"
                  id="path1571"
                  d="m2.26088,42.17444l0.8,0.8l-0.8,-0.8z"
                />
                <path
                  fill="#fcfcfc"
                  id="path1575"
                  d="m28.3804,42.25236l0.5298,1.58441l1.58441,-0.52979l-0.62329,-1.72466l-1.49092,0.67004z"
                />
                <path
                  fill="#668eac"
                  id="path1577"
                  d="m34.26088,42.17444l0.8,0.8l-0.8,-0.8z"
                />
                <path
                  fill="#4e7da3"
                  id="path1591"
                  d="m3.06088,46.97445l0.8,0.79999l-0.8,-0.79999z"
                />
                <path
                  fill="#668eac"
                  id="path1593"
                  d="m33.46088,46.97445l0.8,0.79999l-0.8,-0.79999z"
                />
                <path
                  fill="#bdcfdb"
                  id="path1595"
                  d="m4.66088,47.77444l0.8,0.8l-0.8,-0.8z"
                />
                <path
                  fill="#4e7da3"
                  id="path1597"
                  d="m32.66088,47.77444l0.8,0.8l-0.8,-0.8z"
                />
                <path
                  fill="#adc1d1"
                  id="path1603"
                  d="m0.66088,50.17444l0.8,0.8l-0.8,-0.8m74.4,0l0.8,0.8l-0.8,-0.8z"
                />
                <path
                  fill="#668eac"
                  id="path1607"
                  d="m1.46088,50.97445l0.8,0.79999l-0.8,-0.79999m72.8,0l0.8,0.79999l-0.8,-0.79999z"
                />
                <path
                  fill="#adc1d1"
                  id="path1611"
                  d="m2.26088,51.77444l0.8,0.8l-0.8,-0.8m71.2,0l0.8,0.8l-0.8,-0.8z"
                />
                <g
                  font-style="normal"
                  font-weight="normal"
                  font-size="30px"
                  font-family="sans-serif"
                  fill="#000000"
                  stroke-width="0.75"
                  id="text1625"
                >
                  <path
                    fill="#ffffff"
                    stroke-width="0.75"
                    id="path7296"
                    d="m26.9063,20.38878l3.592,0l0,-0.992l-2.408,0l0,-4.936l-1.184,0l0,5.928z"
                  />
                  <path
                    fill="#ffffff"
                    stroke-width="0.75"
                    id="path7298"
                    d="m32.39578,17.30078c0.176,-0.616 0.352,-1.288 0.504,-1.936l0.04,0c0.168,0.64 0.328,1.32 0.512,1.936l0.176,0.648l-1.408,0l0.176,-0.648zm-2.048,3.088l1.2,0l0.416,-1.52l1.92,0l0.416,1.52l1.24,0l-1.904,-5.928l-1.392,0l-1.896,5.928z"
                  />
                  <path
                    fill="#ffffff"
                    stroke-width="0.75"
                    id="path7300"
                    d="m35.85327,20.38878l2.112,0c1.304,0 2.296,-0.552 2.296,-1.744c0,-0.8 -0.472,-1.248 -1.112,-1.4l0,-0.04c0.504,-0.176 0.808,-0.736 0.808,-1.28c0,-1.104 -0.928,-1.464 -2.144,-1.464l-1.96,0l0,5.928zm1.184,-3.512l0,-1.504l0.704,0c0.712,0 1.064,0.208 1.064,0.728c0,0.472 -0.328,0.776 -1.08,0.776l-0.688,0zm0,2.6l0,-1.728l0.824,0c0.816,0 1.248,0.248 1.248,0.824c0,0.616 -0.44,0.904 -1.248,0.904l-0.824,0z"
                  />
                  <path
                    fill="#ffffff"
                    stroke-width="0.75"
                    id="path7302"
                    d="m43.27077,20.50078c1.568,0 2.648,-1.176 2.648,-3.096c0,-1.92 -1.08,-3.048 -2.648,-3.048c-1.568,0 -2.648,1.12 -2.648,3.048c0,1.92 1.08,3.096 2.648,3.096zm0,-1.024c-0.88,0 -1.44,-0.808 -1.44,-2.072c0,-1.272 0.56,-2.032 1.44,-2.032c0.88,0 1.44,0.76 1.44,2.032c0,1.264 -0.56,2.072 -1.44,2.072z"
                  />
                  <path
                    fill="#ffffff"
                    stroke-width="0.75"
                    id="path7304"
                    d="m46.69626,20.38878l1.184,0l0,-2.24l0.824,0l1.216,2.24l1.32,0l-1.384,-2.424c0.68,-0.264 1.128,-0.816 1.128,-1.704c0,-1.36 -0.984,-1.8 -2.224,-1.8l-2.064,0l0,5.928zm1.184,-3.176l0,-1.808l0.768,0c0.76,0 1.184,0.216 1.184,0.856c0,0.632 -0.424,0.952 -1.184,0.952l-0.768,0z"
                  />
                  <path
                    fill="#ffffff"
                    stroke-width="0.75"
                    id="path7306"
                    d="m52.99374,17.30078c0.176,-0.616 0.352,-1.288 0.504,-1.936l0.04,0c0.168,0.64 0.328,1.32 0.512,1.936l0.176,0.648l-1.408,0l0.176,-0.648zm-2.048,3.088l1.2,0l0.416,-1.52l1.92,0l0.416,1.52l1.24,0l-1.904,-5.928l-1.392,0l-1.896,5.928z"
                  />
                  <path
                    fill="#ffffff"
                    stroke-width="0.75"
                    id="path7308"
                    d="m57.01122,20.38878l1.184,0l0,-4.936l1.68,0l0,-0.992l-4.528,0l0,0.992l1.664,0l0,4.936z"
                  />
                  <path
                    fill="#ffffff"
                    stroke-width="0.75"
                    id="path7310"
                    d="m62.5567,20.50078c1.568,0 2.648,-1.176 2.648,-3.096c0,-1.92 -1.08,-3.048 -2.648,-3.048c-1.568,0 -2.648,1.12 -2.648,3.048c0,1.92 1.08,3.096 2.648,3.096zm0,-1.024c-0.88,0 -1.44,-0.808 -1.44,-2.072c0,-1.272 0.56,-2.032 1.44,-2.032c0.88,0 1.44,0.76 1.44,2.032c0,1.264 -0.56,2.072 -1.44,2.072z"
                  />
                  <path
                    fill="#ffffff"
                    stroke-width="0.75"
                    id="path7312"
                    d="m65.98219,20.38878l1.184,0l0,-2.24l0.824,0l1.216,2.24l1.32,0l-1.384,-2.424c0.68,-0.264 1.128,-0.816 1.128,-1.704c0,-1.36 -0.984,-1.8 -2.224,-1.8l-2.064,0l0,5.928zm1.184,-3.176l0,-1.808l0.768,0c0.76,0 1.184,0.216 1.184,0.856c0,0.632 -0.424,0.952 -1.184,0.952l-0.768,0z"
                  />
                  <path
                    fill="#ffffff"
                    stroke-width="0.75"
                    id="path7314"
                    d="m71.95968,20.38878l1.184,0l0,-2.168l1.784,-3.76l-1.232,0l-0.592,1.448c-0.168,0.44 -0.344,0.856 -0.528,1.312l-0.032,0c-0.184,-0.456 -0.344,-0.872 -0.512,-1.312l-0.592,-1.448l-1.256,0l1.776,3.76l0,2.168z"
                  />
                </g>
                <g
                  font-style="normal"
                  font-weight="normal"
                  font-size="30px"
                  font-family="sans-serif"
                  fill="#90e7ff"
                  stroke-width="0.75"
                  id="text1625-0"
                >
                  <path
                    fill="#90e7ff"
                    stroke-width="0.75"
                    id="path7317"
                    d="m32.91242,32.32419l1.776,0l0,-7.404l2.52,0l0,-1.488l-6.792,0l0,1.488l2.496,0l0,7.404z"
                  />
                  <path
                    fill="#90e7ff"
                    stroke-width="0.75"
                    id="path7319"
                    d="m38.26589,32.32419l5.58,0l0,-1.488l-3.804,0l0,-2.376l3.12,0l0,-1.488l-3.12,0l0,-2.052l3.672,0l0,-1.488l-5.448,0l0,8.892z"
                  />
                  <path
                    fill="#90e7ff"
                    stroke-width="0.75"
                    id="path7321"
                    d="m47.91539,32.49219c2.052,0 3.264,-1.236 3.264,-2.688c0,-1.284 -0.708,-1.968 -1.788,-2.412l-1.164,-0.492c-0.756,-0.3 -1.38,-0.528 -1.38,-1.164c0,-0.588 0.492,-0.936 1.272,-0.936c0.732,0 1.32,0.264 1.884,0.732l0.9,-1.116c-0.72,-0.732 -1.752,-1.14 -2.784,-1.14c-1.8,0 -3.072,1.116 -3.072,2.568c0,1.296 0.9,2.016 1.8,2.388l1.188,0.504c0.792,0.336 1.332,0.54 1.332,1.2c0,0.624 -0.492,1.02 -1.416,1.02c-0.78,0 -1.62,-0.396 -2.256,-0.984l-1.02,1.224c0.864,0.828 2.052,1.296 3.24,1.296z"
                  />
                  <path
                    fill="#90e7ff"
                    stroke-width="0.75"
                    id="path7323"
                    d="m53.85687,32.32419l1.776,0l0,-7.404l2.52,0l0,-1.488l-6.792,0l0,1.488l2.496,0l0,7.404z"
                  />
                  <path
                    fill="#90e7ff"
                    stroke-width="0.75"
                    id="path7325"
                    d="m59.21034,32.32419l5.58,0l0,-1.488l-3.804,0l0,-2.376l3.12,0l0,-1.488l-3.12,0l0,-2.052l3.672,0l0,-1.488l-5.448,0l0,8.892z"
                  />
                  <path
                    fill="#90e7ff"
                    stroke-width="0.75"
                    id="path7327"
                    d="m66.20784,32.32419l2.532,0c2.616,0 4.296,-1.488 4.296,-4.476c0,-3 -1.68,-4.416 -4.392,-4.416l-2.436,0l0,8.892zm1.776,-1.428l0,-6.036l0.552,0c1.656,0 2.688,0.816 2.688,2.988c0,2.16 -1.032,3.048 -2.688,3.048l-0.552,0z"
                  />
                </g>
                <path
                  fill="#fcfcfc"
                  stroke-width="1"
                  id="path1575-4"
                  d="m25.25364,32.67793l2.77365,8.34714l1.51483,-0.53279l-3.01571,-8.28182l-1.27277,0.46747z"
                />
              </g>
            </g>
          </svg>